<?xml version="1.0" encoding="UTF-8" standalone="no"?>
<svg xmlns:dc="http://purl.org/dc/elements/1.1/" xmlns:cc="http://creativecommons.org/ns#" xmlns:rdf="http://www.w3.org/1999/02/22-rdf-syntax-ns#" xmlns:svg="http://www.w3.org/2000/svg" xmlns="http://www.w3.org/2000/svg" xmlns:sodipodi="http://sodipodi.sourceforge.net/DTD/sodipodi-0.0" xmlns:inkscape="http://www.inkscape.org/namespaces/inkscape" width="18.035334mm" height="17.500378mm" viewBox="0 0 18.035334 17.500378" version="1.1" id="svg13826">
  <defs id="defs13820" />
  <g inkscape:label="Calque 1" inkscape:groupmode="layer" id="layer1" transform="translate(-0.99262638,-1.174181)">
    <g id="g70" transform="matrix(1.0148887,0,0,1.0148887,16.902146,-2.698726)">
      <path inkscape:connector-curvature="0" id="path3055" d="m -6.8492015,4.2724668 a 1.1191255,1.1099671 0 0 0 -0.4288818,0.1085303 l -5.8524037,2.7963394 a 1.1191255,1.1099671 0 0 0 -0.605524,0.7529759 l -1.443828,6.2812846 a 1.1191255,1.1099671 0 0 0 0.151943,0.851028 1.1191255,1.1099671 0 0 0 0.06362,0.08832 l 4.0508,5.036555 a 1.1191255,1.1099671 0 0 0 0.874979,0.417654 l 6.4961011,-0.0015 a 1.1191255,1.1099671 0 0 0 0.8749788,-0.416906 L 1.3818872,15.149453 A 1.1191255,1.1099671 0 0 0 1.5981986,14.210104 L 0.15212657,7.9288154 A 1.1191255,1.1099671 0 0 0 -0.45339794,7.1758396 L -6.3065496,4.3809971 A 1.1191255,1.1099671 0 0 0 -6.8492015,4.2724668 Z" style="fill:#326ce5;fill-opacity:1;stroke:none;" />
      <path id="path3054-2-9" d="M -6.8523435,3.8176372 A 1.1814304,1.171762 0 0 0 -7.3044284,3.932904 l -6.1787426,2.9512758 a 1.1814304,1.171762 0 0 0 -0.639206,0.794891 l -1.523915,6.6308282 a 1.1814304,1.171762 0 0 0 0.160175,0.89893 1.1814304,1.171762 0 0 0 0.06736,0.09281 l 4.276094,5.317236 a 1.1814304,1.171762 0 0 0 0.92363,0.440858 l 6.8576188,-0.0015 a 1.1814304,1.171762 0 0 0 0.9236308,-0.44011 l 4.2745966,-5.317985 a 1.1814304,1.171762 0 0 0 0.228288,-0.990993 L 0.53894439,7.6775738 A 1.1814304,1.171762 0 0 0 -0.10026101,6.8834313 L -6.2790037,3.9321555 A 1.1814304,1.171762 0 0 0 -6.8523435,3.8176372 Z m 0.00299,0.4550789 a 1.1191255,1.1099671 0 0 1 0.5426517,0.1085303 l 5.85315169,2.7948425 A 1.1191255,1.1099671 0 0 1 0.15197811,7.9290648 L 1.598051,14.21035 a 1.1191255,1.1099671 0 0 1 -0.2163123,0.939348 l -4.0493032,5.037304 a 1.1191255,1.1099671 0 0 1 -0.8749789,0.416906 l -6.4961006,0.0015 a 1.1191255,1.1099671 0 0 1 -0.874979,-0.417652 l -4.0508,-5.036554 a 1.1191255,1.1099671 0 0 1 -0.06362,-0.08832 1.1191255,1.1099671 0 0 1 -0.151942,-0.851028 l 1.443827,-6.2812853 a 1.1191255,1.1099671 0 0 1 0.605524,-0.7529758 l 5.8524036,-2.7963395 a 1.1191255,1.1099671 0 0 1 0.4288819,-0.1085303 z" style="fill:#ffffff;fill-opacity:1;fill-rule:nonzero;stroke:none;" inkscape:connector-curvature="0" />
    </g>
    <text id="text2066" y="16.811775" x="9.976531" style="font-size:2.82222223px;font-family:Arial;text-align:center;fill:#ffffff;fill-opacity:1;stroke:none;" xml:space="preserve"><tspan text-anchor="middle" y="16.811775" x="9.976531" id="tspan2064" sodipodi:role="line">node</tspan></text>
    <path id="path1994" d="m 9.9921803,4.0942544 c -0.1383298,-0.0044 -3.9950998,1.8918731 -4.0455299,1.9891191 -0.12117,0.233682 -0.9989,4.2818275 -0.94731,4.3690745 0.03,0.05065 0.66219,0.851861 1.40458,1.780327 l 1.3498201,1.688014 2.2211901,9.31e-4 2.2216404,9.31e-4 1.41321,-1.765731 1.41365,-1.765228 -0.49479,-2.1685764 c -0.2722,-1.1927661 -0.51566,-2.1886141 -0.54053,-2.2126041 -0.0695,-0.06688 -3.92096,-1.9137941 -3.9959307,-1.9162151 z m 0.1961407,0.947753 0.90893,0.2635771 -0.90893,0.263576 -0.9089209,-0.263576 z m -0.9089209,0.36452 0.8511209,0.2532261 -0.004,1.183289 -0.8468109,-0.469347 z m 1.8178509,0 0,0.9671681 -0.84679,0.469347 -0.004,-1.183289 z M 8.8997705,7.0212055 9.8087101,7.2847812 8.8997705,7.5483582 7.9908504,7.2847812 Z m 2.2087005,0 0.90894,0.2635757 -0.90894,0.263577 -0.90893,-0.263577 z m -3.1176206,0.3645197 0.8511202,0.252792 -0.004,1.1832908 -0.8468199,-0.468915 z m 1.8178597,0 0,0.9671678 -0.8468098,0.468915 -0.004,-1.1832908 z m 0.3908309,0 0.85113,0.252792 -0.004,1.1832908 -0.84682,-0.468915 z m 1.81787,0 0,0.9671678 -0.84682,0.468915 -0.004,-1.1832908 z" style="fill:#ffffff;fill-opacity:1;stroke:#eeeeee;stroke-width:0;" inkscape:connector-curvature="0" />
  </g>
</svg>
